<?xml version="1.0" encoding="UTF-8" standalone="no"?>
<!DOCTYPE svg PUBLIC "-//W3C//DTD SVG 1.1//EN"
 "http://www.w3.org/Graphics/SVG/1.1/DTD/svg11.dtd">
<!-- Generated by graphviz version 2.30.0 (20130114.0426)
 -->
<!-- Title: GlimmerOverview Pages: 1 -->
<svg width="1483pt" height="1557pt"
 viewBox="0.00 0.00 1482.54 1556.80" xmlns="http://www.w3.org/2000/svg" xmlns:xlink="http://www.w3.org/1999/xlink">
<g id="graph0" class="graph" transform="scale(1 1) rotate(0) translate(4 1552.8)">
<title>GlimmerOverview</title>
<polygon fill="white" stroke="white" points="-4,5 -4,-1552.8 1479.54,-1552.8 1479.54,5 -4,5"/>
<text text-anchor="middle" x="89.8296" y="-1530.8" font-family="Times,serif" font-size="14.00">Glimmer &#45; Indexer Overview</text>
<!-- nQuadFiles -->
<g id="node1" class="node"><title>nQuadFiles</title>
<polygon fill="#ffd0d0" stroke="black" points="706.469,-1442.6 703.469,-1446.6 682.469,-1446.6 679.469,-1442.6 553.531,-1442.6 553.531,-1401.4 706.469,-1401.4 706.469,-1442.6"/>
<text text-anchor="middle" x="630" y="-1424.8" font-family="Times,serif" font-size="14.00">nQuad Source Files</text>
<text text-anchor="middle" x="630" y="-1408" font-family="Times,serif" font-size="14.00">			on HDSF</text>
</g>
<!-- ppMappers -->
<g id="node2" class="node"><title>ppMappers</title>
<ellipse fill="#e0ffff" stroke="black" cx="630" cy="-1240" rx="197.264" ry="41.0911"/>
<text text-anchor="middle" x="630" y="-1251.2" font-family="Times,serif" font-size="14.00">Pre&#45;processor Mappers</text>
<text text-anchor="middle" x="630" y="-1234.4" font-family="Times,serif" font-size="14.00">			TuplesToResourcesMapper.java</text>
<text text-anchor="middle" x="630" y="-1217.6" font-family="Times,serif" font-size="14.00">			tuple parsing and filtering</text>
</g>
<!-- nQuadFiles&#45;&gt;ppMappers -->
<g id="edge1" class="edge"><title>nQuadFiles&#45;&gt;ppMappers</title>
<path fill="none" stroke="black" d="M630,-1401.39C630,-1375.35 630,-1328.41 630,-1292.01"/>
<polygon fill="black" stroke="black" points="633.5,-1291.57 630,-1281.57 626.5,-1291.57 633.5,-1291.57"/>
</g>
<!-- ppReducer -->
<g id="node3" class="node"><title>ppReducer</title>
<ellipse fill="#e0ffff" stroke="black" cx="630" cy="-1083" rx="404.134" ry="76.8665"/>
<text text-anchor="middle" x="630" y="-1119.4" font-family="Times,serif" font-size="14.00">Pre&#45;processor Reducer</text>
<text text-anchor="middle" x="630" y="-1102.6" font-family="Times,serif" font-size="14.00">			ResourcesReducer.java</text>
<text text-anchor="middle" x="630" y="-1085.8" font-family="Times,serif" font-size="14.00">			Only 1</text>
<text text-anchor="middle" x="630" y="-1069" font-family="Times,serif" font-size="14.00">			Sorts all URLs and BNodes and assigns IDs.</text>
<text text-anchor="middle" x="630" y="-1052.2" font-family="Times,serif" font-size="14.00">			The IDs will match the value returned from the MPH built on the All Resources File</text>
<text text-anchor="middle" x="630" y="-1035.4" font-family="Times,serif" font-size="14.00">			URLs/BNodes that are subjects use these IDs as there &#39;DocID</text>
</g>
<!-- ppMappers&#45;&gt;ppReducer -->
<g id="edge2" class="edge"><title>ppMappers&#45;&gt;ppReducer</title>
<path fill="none" stroke="black" d="M630,-1198.68C630,-1189.89 630,-1180.27 630,-1170.45"/>
<polygon fill="black" stroke="black" points="633.5,-1170.18 630,-1160.18 626.5,-1170.18 633.5,-1170.18"/>
</g>
<!-- objectResourceFile -->
<g id="node6" class="node"><title>objectResourceFile</title>
<polygon fill="#ffffe0" stroke="black" points="313.322,-967.602 20.6776,-967.602 20.6776,-926.398 319.322,-926.398 319.322,-961.602 313.322,-967.602"/>
<polyline fill="none" stroke="black" points="313.322,-967.602 313.322,-961.602 "/>
<polyline fill="none" stroke="black" points="319.322,-961.602 313.322,-961.602 "/>
<text text-anchor="middle" x="170" y="-949.8" font-family="Times,serif" font-size="14.00">objects Resources File</text>
<text text-anchor="middle" x="170" y="-933" font-family="Times,serif" font-size="14.00">			Sorted list of Object URLs/BNodes</text>
</g>
<!-- ppReducer&#45;&gt;objectResourceFile -->
<g id="edge3" class="edge"><title>ppReducer&#45;&gt;objectResourceFile</title>
<path fill="none" stroke="black" d="M411.114,-1018.24C352.316,-1001.11 292.546,-983.698 247.225,-970.496"/>
<polygon fill="black" stroke="black" points="248.068,-967.096 237.488,-967.66 246.11,-973.817 248.068,-967.096"/>
</g>
<!-- contextResourceFile -->
<g id="node7" class="node"><title>contextResourceFile</title>
<polygon fill="#ffffe0" stroke="black" points="596.152,-967.602 337.848,-967.602 337.848,-926.398 602.152,-926.398 602.152,-961.602 596.152,-967.602"/>
<polyline fill="none" stroke="black" points="596.152,-967.602 596.152,-961.602 "/>
<polyline fill="none" stroke="black" points="602.152,-961.602 596.152,-961.602 "/>
<text text-anchor="middle" x="470" y="-949.8" font-family="Times,serif" font-size="14.00">contexts Resources File</text>
<text text-anchor="middle" x="470" y="-933" font-family="Times,serif" font-size="14.00">			Sorted list of Resource URLs</text>
</g>
<!-- ppReducer&#45;&gt;contextResourceFile -->
<g id="edge4" class="edge"><title>ppReducer&#45;&gt;contextResourceFile</title>
<path fill="none" stroke="black" d="M541.11,-1007.55C526.85,-995.612 512.972,-983.989 501.318,-974.229"/>
<polygon fill="black" stroke="black" points="503.541,-971.525 493.627,-967.788 499.047,-976.892 503.541,-971.525"/>
</g>
<!-- bySubjectFile -->
<g id="node4" class="node"><title>bySubjectFile</title>
<polygon fill="#ffffe0" stroke="black" points="678.573,-669.7 325.427,-669.7 325.427,-594.3 684.573,-594.3 684.573,-663.7 678.573,-669.7"/>
<polyline fill="none" stroke="black" points="678.573,-669.7 678.573,-663.7 "/>
<polyline fill="none" stroke="black" points="684.573,-663.7 678.573,-663.7 "/>
<text text-anchor="middle" x="505" y="-651.6" font-family="Times,serif" font-size="14.00">bySubject File</text>
<text text-anchor="middle" x="505" y="-634.8" font-family="Times,serif" font-size="14.00">			Sorted &#45; Tab delimited</text>
<text text-anchor="middle" x="505" y="-618" font-family="Times,serif" font-size="14.00">			One line for each Subject(Resource/BNode)</text>
<text text-anchor="middle" x="505" y="-601.2" font-family="Times,serif" font-size="14.00">			Lines start with &lt;DocId&gt;t&lt;Previous DocId&gt;t..</text>
</g>
<!-- ppReducer&#45;&gt;bySubjectFile -->
<g id="edge5" class="edge"><title>ppReducer&#45;&gt;bySubjectFile</title>
<path fill="none" stroke="black" d="M624.223,-1006.01C621.356,-980.374 617.141,-951.743 611,-926 589.584,-836.218 549.626,-735.954 525.357,-679.067"/>
<polygon fill="black" stroke="black" points="528.471,-677.448 521.309,-669.64 522.039,-680.209 528.471,-677.448"/>
</g>
<!-- predicateResourceFile -->
<g id="node5" class="node"><title>predicateResourceFile</title>
<polygon fill="#ffffe0" stroke="black" points="1075.01,-907.602 644.992,-907.602 644.992,-866.398 1081.01,-866.398 1081.01,-901.602 1075.01,-907.602"/>
<polyline fill="none" stroke="black" points="1075.01,-907.602 1075.01,-901.602 "/>
<polyline fill="none" stroke="black" points="1081.01,-901.602 1075.01,-901.602 "/>
<text text-anchor="middle" x="863" y="-889.8" font-family="Times,serif" font-size="14.00">predicates Resources File</text>
<text text-anchor="middle" x="863" y="-873" font-family="Times,serif" font-size="14.00">			Sorted list of predicate URLs prefixed with occurence count</text>
</g>
<!-- ppReducer&#45;&gt;predicateResourceFile -->
<g id="edge7" class="edge"><title>ppReducer&#45;&gt;predicateResourceFile</title>
<path fill="none" stroke="black" d="M717.722,-1007.87C748.677,-981.863 783.791,-952.524 816,-926 820.67,-922.154 825.621,-918.113 830.489,-914.16"/>
<polygon fill="black" stroke="black" points="832.971,-916.654 838.538,-907.64 828.565,-911.214 832.971,-916.654"/>
</g>
<!-- allResourceFile -->
<g id="node8" class="node"><title>allResourceFile</title>
<polygon fill="#ffffe0" stroke="black" points="1118.32,-967.602 825.678,-967.602 825.678,-926.398 1124.32,-926.398 1124.32,-961.602 1118.32,-967.602"/>
<polyline fill="none" stroke="black" points="1118.32,-967.602 1118.32,-961.602 "/>
<polyline fill="none" stroke="black" points="1124.32,-961.602 1118.32,-961.602 "/>
<text text-anchor="middle" x="975" y="-949.8" font-family="Times,serif" font-size="14.00">all Resources File</text>
<text text-anchor="middle" x="975" y="-933" font-family="Times,serif" font-size="14.00">			Sorted list of all URLs and BNodes</text>
</g>
<!-- ppReducer&#45;&gt;allResourceFile -->
<g id="edge10" class="edge"><title>ppReducer&#45;&gt;allResourceFile</title>
<path fill="none" stroke="black" d="M806.037,-1013.63C845.161,-998.43 884.042,-983.328 914.626,-971.45"/>
<polygon fill="black" stroke="black" points="916.2,-974.593 924.254,-967.71 913.665,-968.068 916.2,-974.593"/>
</g>
<!-- vhMappers -->
<g id="node14" class="node"><title>vhMappers</title>
<ellipse fill="#e0ffff" stroke="black" cx="912" cy="-474" rx="312.285" ry="41.0911"/>
<text text-anchor="middle" x="912" y="-485.2" font-family="Times,serif" font-size="14.00">Horizontal &amp; Vertical Index Generator Mappers</text>
<text text-anchor="middle" x="912" y="-468.4" font-family="Times,serif" font-size="14.00">			DocumentMapper.java</text>
<text text-anchor="middle" x="912" y="-451.6" font-family="Times,serif" font-size="14.00">			Tokenise each field of Horizontal or Vertical &#39;RDFDocument&#39;</text>
</g>
<!-- bySubjectFile&#45;&gt;vhMappers -->
<g id="edge6" class="edge"><title>bySubjectFile&#45;&gt;vhMappers</title>
<path fill="none" stroke="black" d="M600.681,-594.326C661.252,-571.11 739.742,-541.025 802.756,-516.872"/>
<polygon fill="black" stroke="black" points="804.248,-520.049 812.333,-513.201 801.743,-513.512 804.248,-520.049"/>
</g>
<!-- documentSizesMR -->
<g id="node18" class="node"><title>documentSizesMR</title>
<ellipse fill="#e0ffff" stroke="black" cx="166" cy="-384" rx="166.142" ry="29.3315"/>
<text text-anchor="middle" x="166" y="-386.8" font-family="Times,serif" font-size="14.00">Compute Doc Sizes</text>
<text text-anchor="middle" x="166" y="-370" font-family="Times,serif" font-size="14.00">			DocSizesGenerator.java</text>
</g>
<!-- bySubjectFile&#45;&gt;documentSizesMR -->
<g id="edge21" class="edge"><title>bySubjectFile&#45;&gt;documentSizesMR</title>
<path fill="none" stroke="black" d="M325.383,-610.432C266.478,-594.292 206.765,-565.864 170,-516 150.638,-489.739 151.711,-451.798 156.402,-423.5"/>
<polygon fill="black" stroke="black" points="159.865,-424.023 158.262,-413.55 152.984,-422.736 159.865,-424.023"/>
</g>
<!-- documentCollectionMR -->
<g id="node17" class="node"><title>documentCollectionMR</title>
<ellipse fill="#e0ffff" stroke="black" cx="380" cy="-474" rx="200.97" ry="29.3315"/>
<text text-anchor="middle" x="380" y="-476.8" font-family="Times,serif" font-size="14.00">Build DocumentCollection</text>
<text text-anchor="middle" x="380" y="-460" font-family="Times,serif" font-size="14.00">			BySubjectCollectionBuilder.java</text>
</g>
<!-- bySubjectFile&#45;&gt;documentCollectionMR -->
<g id="edge23" class="edge"><title>bySubjectFile&#45;&gt;documentCollectionMR</title>
<path fill="none" stroke="black" d="M475.377,-594.03C455.399,-569.098 429.156,-536.346 409.255,-511.511"/>
<polygon fill="black" stroke="black" points="411.752,-509.03 402.768,-503.414 406.29,-513.407 411.752,-509.03"/>
</g>
<!-- topPredicatesFile -->
<g id="node9" class="node"><title>topPredicatesFile</title>
<polygon fill="#e0ffe0" stroke="black" points="1000.19,-746.401 719.811,-746.401 719.811,-687.599 1006.19,-687.599 1006.19,-740.401 1000.19,-746.401"/>
<polyline fill="none" stroke="black" points="1000.19,-746.401 1000.19,-740.401 "/>
<polyline fill="none" stroke="black" points="1006.19,-740.401 1000.19,-740.401 "/>
<text text-anchor="middle" x="863" y="-728.2" font-family="Times,serif" font-size="14.00">topPredicates File</text>
<text text-anchor="middle" x="863" y="-711.4" font-family="Times,serif" font-size="14.00">			build&#45;index.sh(groupBySubject)</text>
<text text-anchor="middle" x="863" y="-694.6" font-family="Times,serif" font-size="14.00">			Short list of most used predicates</text>
</g>
<!-- predicateResourceFile&#45;&gt;topPredicatesFile -->
<g id="edge8" class="edge"><title>predicateResourceFile&#45;&gt;topPredicatesFile</title>
<path fill="none" stroke="black" d="M863,-866.068C863,-839.13 863,-790.547 863,-756.395"/>
<polygon fill="black" stroke="black" points="866.5,-756.3 863,-746.3 859.5,-756.3 866.5,-756.3"/>
</g>
<!-- buildHash -->
<g id="node10" class="node"><title>buildHash</title>
<ellipse fill="#d0d0ff" stroke="black" cx="1112" cy="-806" rx="208.201" ry="41.0911"/>
<text text-anchor="middle" x="1112" y="-817.2" font-family="Times,serif" font-size="14.00">Build Hash</text>
<text text-anchor="middle" x="1112" y="-800.4" font-family="Times,serif" font-size="14.00">			ComputeHashTool.java</text>
<text text-anchor="middle" x="1112" y="-783.6" font-family="Times,serif" font-size="14.00">			Reads from HDFS but runs locally</text>
</g>
<!-- allResourceFile&#45;&gt;buildHash -->
<g id="edge11" class="edge"><title>allResourceFile&#45;&gt;buildHash</title>
<path fill="none" stroke="black" d="M1066.01,-926.361C1074.98,-921.524 1083.25,-915.5 1090,-908 1102.25,-894.399 1108.23,-875.606 1110.99,-857.916"/>
<polygon fill="black" stroke="black" points="1114.5,-858.031 1112.27,-847.675 1107.56,-857.164 1114.5,-858.031"/>
</g>
<!-- topPredicatesFile&#45;&gt;vhMappers -->
<g id="edge9" class="edge"><title>topPredicatesFile&#45;&gt;vhMappers</title>
<path fill="none" stroke="black" d="M866.643,-687.763C870.023,-662.952 875.504,-625.928 882,-594 886.639,-571.2 892.779,-546.197 898.296,-525.02"/>
<polygon fill="black" stroke="black" points="901.701,-525.832 900.862,-515.271 894.932,-524.051 901.701,-525.832"/>
</g>
<!-- allMapFile -->
<g id="node11" class="node"><title>allMapFile</title>
<polygon fill="#ffffe0" stroke="black" points="1117.23,-652.602 890.765,-652.602 890.765,-611.398 1123.23,-611.398 1123.23,-646.602 1117.23,-652.602"/>
<polyline fill="none" stroke="black" points="1117.23,-652.602 1117.23,-646.602 "/>
<polyline fill="none" stroke="black" points="1123.23,-646.602 1117.23,-646.602 "/>
<text text-anchor="middle" x="1007" y="-634.8" font-family="Times,serif" font-size="14.00">all.map</text>
<text text-anchor="middle" x="1007" y="-618" font-family="Times,serif" font-size="14.00">			Unsigned hash function</text>
</g>
<!-- buildHash&#45;&gt;allMapFile -->
<g id="edge12" class="edge"><title>buildHash&#45;&gt;allMapFile</title>
<path fill="none" stroke="black" d="M1087.38,-764.674C1068.02,-732.957 1041.53,-689.563 1024.34,-661.408"/>
<polygon fill="black" stroke="black" points="1027.31,-659.548 1019.11,-652.837 1021.33,-663.196 1027.31,-659.548"/>
</g>
<!-- allSmapFile -->
<g id="node12" class="node"><title>allSmapFile</title>
<polygon fill="#e0ffe0" stroke="black" points="1391.16,-652.602 1178.84,-652.602 1178.84,-611.398 1397.16,-611.398 1397.16,-646.602 1391.16,-652.602"/>
<polyline fill="none" stroke="black" points="1391.16,-652.602 1391.16,-646.602 "/>
<polyline fill="none" stroke="black" points="1397.16,-646.602 1391.16,-646.602 "/>
<text text-anchor="middle" x="1288" y="-634.8" font-family="Times,serif" font-size="14.00">all.smap</text>
<text text-anchor="middle" x="1288" y="-618" font-family="Times,serif" font-size="14.00">			Signed hash function</text>
</g>
<!-- buildHash&#45;&gt;allSmapFile -->
<g id="edge14" class="edge"><title>buildHash&#45;&gt;allSmapFile</title>
<path fill="none" stroke="black" d="M1152.82,-765.107C1185.82,-732.859 1231.38,-688.329 1260.27,-660.098"/>
<polygon fill="black" stroke="black" points="1262.89,-662.433 1267.6,-652.941 1258,-657.427 1262.89,-662.433"/>
</g>
<!-- allInfoFile -->
<g id="node13" class="node"><title>allInfoFile</title>
<polygon fill="#ffffe0" stroke="black" points="1317.35,-575.602 1124.65,-575.602 1124.65,-534.398 1323.35,-534.398 1323.35,-569.602 1317.35,-575.602"/>
<polyline fill="none" stroke="black" points="1317.35,-575.602 1317.35,-569.602 "/>
<polyline fill="none" stroke="black" points="1323.35,-569.602 1317.35,-569.602 "/>
<text text-anchor="middle" x="1224" y="-557.8" font-family="Times,serif" font-size="14.00">all.info</text>
<text text-anchor="middle" x="1224" y="-541" font-family="Times,serif" font-size="14.00">		# of entries in the hash</text>
</g>
<!-- buildHash&#45;&gt;allInfoFile -->
<g id="edge15" class="edge"><title>buildHash&#45;&gt;allInfoFile</title>
<path fill="none" stroke="black" d="M1114.97,-764.635C1120.02,-719.432 1133.61,-645.74 1170,-594 1172.97,-589.772 1176.58,-585.854 1180.49,-582.268"/>
<polygon fill="black" stroke="black" points="1182.85,-584.859 1188.33,-575.789 1178.39,-579.464 1182.85,-584.859"/>
</g>
<!-- allMapFile&#45;&gt;vhMappers -->
<g id="edge13" class="edge"><title>allMapFile&#45;&gt;vhMappers</title>
<path fill="none" stroke="black" d="M994.968,-611.242C981.711,-589.472 959.889,-553.639 941.952,-524.184"/>
<polygon fill="black" stroke="black" points="944.714,-521.991 936.524,-515.271 938.736,-525.632 944.714,-521.991"/>
</g>
<!-- vhReducers -->
<g id="node15" class="node"><title>vhReducers</title>
<ellipse fill="#e0ffff" stroke="black" cx="912" cy="-294" rx="202.914" ry="41.0911"/>
<text text-anchor="middle" x="912" y="-305.2" font-family="Times,serif" font-size="14.00">Horizontal &amp; Vertical Index Generator Reducers</text>
<text text-anchor="middle" x="912" y="-288.4" font-family="Times,serif" font-size="14.00">			TermReducer.java</text>
<text text-anchor="middle" x="912" y="-271.6" font-family="Times,serif" font-size="14.00">			Writes terms to MG4J indices</text>
</g>
<!-- allInfoFile&#45;&gt;vhReducers -->
<g id="edge16" class="edge"><title>allInfoFile&#45;&gt;vhReducers</title>
<path fill="none" stroke="black" d="M1232.45,-533.958C1241.89,-508.115 1253.37,-462.836 1233,-432 1196.86,-377.289 1133.92,-344.352 1073.29,-324.557"/>
<polygon fill="black" stroke="black" points="1074.18,-321.165 1063.59,-321.491 1072.07,-327.84 1074.18,-321.165"/>
<text text-anchor="middle" x="1359.27" y="-468.4" font-family="Times,serif" font-size="14.00">Number of elements in &#39;all&#39; hash function</text>
</g>
<!-- vhMappers&#45;&gt;vhReducers -->
<g id="edge17" class="edge"><title>vhMappers&#45;&gt;vhReducers</title>
<path fill="none" stroke="black" d="M912,-432.609C912,-406.869 912,-373.304 912,-345.768"/>
<polygon fill="black" stroke="black" points="915.5,-345.539 912,-335.539 908.5,-345.539 915.5,-345.539"/>
</g>
<!-- indexPartRFiles -->
<g id="node16" class="node"><title>indexPartRFiles</title>
<polygon fill="#ffffe0" stroke="black" points="644.428,-213.602 641.428,-217.602 620.428,-217.602 617.428,-213.602 373.572,-213.602 373.572,-172.398 644.428,-172.398 644.428,-213.602"/>
<text text-anchor="middle" x="509" y="-195.8" font-family="Times,serif" font-size="14.00">part&#45;r&#45;?????</text>
<text text-anchor="middle" x="509" y="-179" font-family="Times,serif" font-size="14.00">			on MG4J Index Fileson HDFS</text>
</g>
<!-- vhReducers&#45;&gt;indexPartRFiles -->
<g id="edge18" class="edge"><title>vhReducers&#45;&gt;indexPartRFiles</title>
<path fill="none" stroke="black" d="M784.765,-261.744C724.399,-246.914 653.694,-229.545 598.992,-216.107"/>
<polygon fill="black" stroke="black" points="599.517,-212.632 588.971,-213.645 597.847,-219.43 599.517,-212.632"/>
</g>
<!-- copyMergeIndexes -->
<g id="node19" class="node"><title>copyMergeIndexes</title>
<ellipse fill="#d0d0ff" stroke="black" cx="386" cy="-104" rx="120.951" ry="29.3315"/>
<text text-anchor="middle" x="386" y="-106.8" font-family="Times,serif" font-size="14.00">Copy &amp; Merge Indexes</text>
<text text-anchor="middle" x="386" y="-90" font-family="Times,serif" font-size="14.00">			on local disk</text>
</g>
<!-- indexPartRFiles&#45;&gt;copyMergeIndexes -->
<g id="edge19" class="edge"><title>indexPartRFiles&#45;&gt;copyMergeIndexes</title>
<path fill="none" stroke="black" d="M481.089,-172.258C466.845,-162.183 449.132,-149.655 432.869,-138.151"/>
<polygon fill="black" stroke="black" points="434.708,-135.165 424.523,-132.248 430.666,-140.88 434.708,-135.165"/>
</g>
<!-- collectionFiles -->
<g id="node21" class="node"><title>collectionFiles</title>
<polygon fill="#e0ffe0" stroke="black" points="521.287,-314.602 518.287,-318.602 497.287,-318.602 494.287,-314.602 238.713,-314.602 238.713,-273.398 521.287,-273.398 521.287,-314.602"/>
<text text-anchor="middle" x="380" y="-296.8" font-family="Times,serif" font-size="14.00">DocumentCollection Files</text>
<text text-anchor="middle" x="380" y="-280" font-family="Times,serif" font-size="14.00">			Copied from HDFS to local disk</text>
</g>
<!-- documentCollectionMR&#45;&gt;collectionFiles -->
<g id="edge24" class="edge"><title>documentCollectionMR&#45;&gt;collectionFiles</title>
<path fill="none" stroke="black" d="M380,-444.401C380,-411.591 380,-358.043 380,-324.755"/>
<polygon fill="black" stroke="black" points="383.5,-324.71 380,-314.71 376.5,-324.711 383.5,-324.71"/>
</g>
<!-- localIndexFiles -->
<g id="node20" class="node"><title>localIndexFiles</title>
<polygon fill="#e0ffe0" stroke="black" points="325.36,-36 322.36,-40 301.36,-40 298.36,-36 172.64,-36 172.64,-0 325.36,-0 325.36,-36"/>
<text text-anchor="middle" x="249" y="-12.4" font-family="Times,serif" font-size="14.00">Local MG4J Index Files</text>
</g>
<!-- documentSizesMR&#45;&gt;localIndexFiles -->
<g id="edge22" class="edge"><title>documentSizesMR&#45;&gt;localIndexFiles</title>
<path fill="none" stroke="black" d="M175.246,-354.5C184.06,-324.762 196,-276.615 196,-234 196,-234 196,-234 196,-103 196,-80.5336 209.728,-59.1775 223.211,-43.6209"/>
<polygon fill="black" stroke="black" points="225.985,-45.7746 230.165,-36.0393 220.826,-41.0429 225.985,-45.7746"/>
</g>
<!-- copyMergeIndexes&#45;&gt;localIndexFiles -->
<g id="edge20" class="edge"><title>copyMergeIndexes&#45;&gt;localIndexFiles</title>
<path fill="none" stroke="black" d="M342.652,-76.4219C324.361,-65.2069 303.292,-52.2883 285.775,-41.548"/>
<polygon fill="black" stroke="black" points="287.326,-38.3939 276.972,-36.1506 283.667,-44.3615 287.326,-38.3939"/>
</g>
<!-- Legend -->
<g id="node22" class="node"><title>Legend</title>
<polygon fill="none" stroke="black" points="797,-1426 797,-1451 1349,-1451 1349,-1426 797,-1426"/>
<text text-anchor="start" x="1061.5" y="-1432.5" font-family="Times,serif" font-weight="bold" font-size="14.00">Key</text>
<polygon fill="none" stroke="black" points="797,-1402 797,-1426 908,-1426 908,-1402 797,-1402"/>
<text text-anchor="start" x="822.5" y="-1408" font-family="Times,serif" font-size="14.00">Input Files</text>
<polygon fill="none" stroke="black" points="908,-1402 908,-1426 1018,-1426 1018,-1402 908,-1402"/>
<text text-anchor="start" x="929.5" y="-1408" font-family="Times,serif" font-size="14.00">MR process</text>
<polygon fill="none" stroke="black" points="1018,-1402 1018,-1426 1129,-1426 1129,-1402 1018,-1402"/>
<text text-anchor="start" x="1023" y="-1408" font-family="Times,serif" font-size="14.00">Intermediate Files</text>
<polygon fill="none" stroke="black" points="1129,-1402 1129,-1426 1239,-1426 1239,-1402 1129,-1402"/>
<text text-anchor="start" x="1145.5" y="-1408" font-family="Times,serif" font-size="14.00">Local process</text>
<polygon fill="none" stroke="black" points="1239,-1402 1239,-1426 1349,-1426 1349,-1402 1239,-1402"/>
<text text-anchor="start" x="1259.5" y="-1408" font-family="Times,serif" font-size="14.00">Output Files</text>
<polygon fill="#ffd0d0" stroke="none" points="797,-1392 797,-1402 908,-1402 908,-1392 797,-1392"/>
<polygon fill="none" stroke="black" points="797,-1392 797,-1402 908,-1402 908,-1392 797,-1392"/>
<polygon fill="#e0ffff" stroke="none" points="908,-1392 908,-1402 1018,-1402 1018,-1392 908,-1392"/>
<polygon fill="none" stroke="black" points="908,-1392 908,-1402 1018,-1402 1018,-1392 908,-1392"/>
<polygon fill="#ffffe0" stroke="none" points="1018,-1392 1018,-1402 1129,-1402 1129,-1392 1018,-1392"/>
<polygon fill="none" stroke="black" points="1018,-1392 1018,-1402 1129,-1402 1129,-1392 1018,-1392"/>
<polygon fill="#d0d0ff" stroke="none" points="1129,-1392 1129,-1402 1239,-1402 1239,-1392 1129,-1392"/>
<polygon fill="none" stroke="black" points="1129,-1392 1129,-1402 1239,-1402 1239,-1392 1129,-1392"/>
<polygon fill="#e0ffe0" stroke="none" points="1239,-1392 1239,-1402 1349,-1402 1349,-1392 1239,-1392"/>
<polygon fill="none" stroke="black" points="1239,-1392 1239,-1402 1349,-1402 1349,-1392 1239,-1392"/>
</g>
</g>
</svg>
